<svg id="visual" viewBox="0 0 900 600" width="900" height="600" xmlns="http://www.w3.org/2000/svg" xmlns:xlink="http://www.w3.org/1999/xlink" version="1.1"><path d="M0 217L129 208L257 223L386 214L514 298L643 290L771 271L900 280L900 0L771 0L643 0L514 0L386 0L257 0L129 0L0 0Z" fill="#40fcbd"></path><path d="M0 235L129 154L257 197L386 232L514 162L643 192L771 169L900 214L900 0L771 0L643 0L514 0L386 0L257 0L129 0L0 0Z" fill="#33e09c"></path><path d="M0 136L129 111L257 124L386 111L514 122L643 126L771 107L900 135L900 0L771 0L643 0L514 0L386 0L257 0L129 0L0 0Z" fill="#25c47d"></path><path d="M0 85L129 73L257 93L386 78L514 124L643 125L771 122L900 82L900 0L771 0L643 0L514 0L386 0L257 0L129 0L0 0Z" fill="#16a95f"></path><path d="M0 79L129 37L257 29L386 74L514 66L643 72L771 80L900 54L900 0L771 0L643 0L514 0L386 0L257 0L129 0L0 0Z" fill="#018f42"></path></svg>